<?xml version="1.0" encoding="UTF-8" standalone="no"?><svg xmlns="http://www.w3.org/2000/svg" xmlns:xlink="http://www.w3.org/1999/xlink" fill="#ffffff" height="29.7" preserveAspectRatio="xMidYMid meet" version="1" viewBox="2.0 9.2 44.0 29.7" width="44" zoomAndPan="magnify"><g id="change1_1"><path d="M45.102,10.03c-0.002-0.002-0.002-0.004-0.004-0.006c-0.02-0.022-0.045-0.034-0.068-0.052 c-0.531-0.491-1.234-0.797-2.016-0.797H4.986c-0.779,0-1.483,0.307-2.016,0.797c-0.022,0.018-0.048,0.03-0.067,0.052 c-0.002,0.002-0.002,0.004-0.004,0.006C2.347,10.573,2,11.327,2,12.161v23.678c0,0.834,0.346,1.588,0.899,2.131 c0.002,0.002,0.002,0.004,0.004,0.006c0.012,0.015,0.029,0.02,0.042,0.031c0.535,0.504,1.25,0.818,2.041,0.818h38.027 c0.791,0,1.506-0.314,2.041-0.818c0.012-0.012,0.029-0.017,0.041-0.031c0.002-0.002,0.002-0.004,0.004-0.006 c0.555-0.541,0.9-1.296,0.9-2.131V12.161C46,11.327,45.654,10.573,45.102,10.03z M29.721,24l14.945-12.941 C44.877,11.374,45,11.753,45,12.161v23.678c0,0.408-0.123,0.787-0.334,1.102L29.721,24z M43.014,10.174 c0.322,0,0.623,0.084,0.891,0.221l-18.258,15.81c-0.938,0.813-2.353,0.813-3.292,0L4.097,10.395 c0.269-0.137,0.568-0.221,0.891-0.221H43.014z M3.335,36.94C3.125,36.626,3,36.247,3,35.839V12.161c0-0.408,0.124-0.787,0.335-1.102 L18.279,24L3.335,36.94z M4.986,37.826c-0.322,0-0.622-0.084-0.891-0.222l14.947-12.943l2.656,2.3 c0.655,0.567,1.479,0.853,2.301,0.853c0.821,0,1.645-0.283,2.301-0.853l2.656-2.3l14.945,12.943 c-0.268,0.138-0.566,0.222-0.891,0.222H4.986z" fill="inherit"/></g></svg>