<?xml version="1.0" encoding="UTF-8" standalone="no"?><svg xmlns="http://www.w3.org/2000/svg" xmlns:xlink="http://www.w3.org/1999/xlink" fill="#000000" height="464" preserveAspectRatio="xMidYMid meet" version="1" viewBox="16.0 16.0 480.0 464.0" width="480" zoomAndPan="magnify"><g fill="#ffffff" id="change1_1"><path d="M 464 464 L 440 464 L 440 400 C 448.820312 400 456 407.179688 456 416 C 456 417.726562 455.660156 419.5 454.964844 421.421875 C 454.042969 423.957031 454.460938 426.785156 456.078125 428.945312 C 457.695312 431.105469 460.292969 432.304688 462.984375 432.136719 C 463.402344 432.109375 463.8125 432.0625 464.222656 432.003906 L 464.238281 432.003906 C 472.953125 432.132812 480 439.257812 480 448 C 480 456.820312 472.820312 464 464 464 Z M 392 464 L 392 280 C 392 275.582031 388.417969 272 384 272 L 272 272 C 267.582031 272 264 275.582031 264 280 L 264 464 L 88 464 L 88 236.074219 L 256 113.890625 L 424 236.074219 L 424 464 Z M 376 464 L 280 464 L 280 288 L 376 288 Z M 32 448 C 32 439.257812 39.046875 432.132812 47.761719 432.003906 L 47.777344 432.003906 C 48.1875 432.0625 48.597656 432.109375 49.015625 432.136719 C 51.707031 432.316406 54.304688 431.105469 55.921875 428.945312 C 57.539062 426.785156 57.957031 423.957031 57.035156 421.421875 C 56.339844 419.5 56 417.726562 56 416 C 56 407.179688 63.175781 400 72 400 L 72 464 L 48 464 C 39.175781 464 32 456.820312 32 448 Z M 256 65.90625 L 450.554688 208.085938 L 431.925781 222.054688 L 260.707031 97.53125 C 259.304688 96.511719 257.652344 96 256 96 C 254.347656 96 252.695312 96.511719 251.292969 97.53125 L 80.074219 222.054688 L 61.445312 208.085938 Z M 336 104 L 336 64 L 384 64 L 384 139.628906 L 335.242188 104 Z M 328 32 L 392 32 L 392 48 L 328 48 Z M 471.980469 417.007812 C 471.992188 416.671875 472 416.335938 472 416 C 472 398.355469 457.644531 384 440 384 L 440 236 L 468.800781 214.398438 C 470.828125 212.878906 472.015625 210.484375 472 207.949219 C 471.984375 205.414062 470.765625 203.035156 468.71875 201.539062 L 400 151.320312 L 400 64 C 404.417969 64 408 60.417969 408 56 L 408 24 C 408 19.582031 404.417969 16 400 16 L 320 16 C 315.582031 16 312 19.582031 312 24 L 312 56 C 312 60.417969 315.582031 64 320 64 L 320 92.859375 L 260.71875 49.539062 C 257.910156 47.484375 254.089844 47.484375 251.28125 49.539062 L 43.28125 201.539062 C 41.234375 203.035156 40.015625 205.414062 40 207.949219 C 39.984375 210.484375 41.171875 212.878906 43.199219 214.398438 L 72 236 L 72 384 C 54.355469 384 40 398.355469 40 416 C 40 416.335938 40.007812 416.671875 40.019531 417.007812 C 26.222656 420.5625 16 433.109375 16 448 C 16 465.644531 30.355469 480 48 480 L 464 480 C 481.644531 480 496 465.644531 496 448 C 496 433.109375 485.777344 420.5625 471.980469 417.007812" fill="inherit"/><path d="M 184 384 L 184 344 L 216 344 L 216 384 Z M 136 344 L 168 344 L 168 384 L 136 384 Z M 168 288 L 168 328 L 136 328 L 136 288 Z M 216 328 L 184 328 L 184 288 L 216 288 Z M 224 272 L 128 272 C 123.582031 272 120 275.582031 120 280 L 120 392 C 120 396.417969 123.582031 400 128 400 L 224 400 C 228.417969 400 232 396.417969 232 392 L 232 280 C 232 275.582031 228.417969 272 224 272" fill="inherit"/><path d="M 304 376 C 308.417969 376 312 372.417969 312 368 C 312 363.582031 308.417969 360 304 360 C 299.582031 360 296 363.582031 296 368 C 296 372.417969 299.582031 376 304 376" fill="inherit"/></g></svg>