<?xml version="1.0" encoding="UTF-8" standalone="no"?><svg xmlns="http://www.w3.org/2000/svg" xmlns:xlink="http://www.w3.org/1999/xlink" fill="#ffffff" height="63.3" preserveAspectRatio="xMidYMid meet" version="1" viewBox="37.9 37.9 63.6 63.3" width="63.6" zoomAndPan="magnify"><g id="change1_1"><path d="M99.75,86.663c-1.564-1.798-8.96-9.199-9.641-9.881c-0.342-0.389-1.933-2.054-4.17-2.054c-1.003,0-1.957,0.333-2.837,0.99 c-1.633,1.219-4.213,3.551-5.663,4.887c-1.773-0.991-5.68-3.257-8.204-5.332c-3.7-3.043-7.005-7-10.06-12.022l-0.854-1.609 c1.586-1.72,3.838-4.221,5.022-5.809c2.195-2.941,0.291-5.841-1.068-7.011c-0.705-0.705-8.082-8.073-9.875-9.636 c-0.993-0.865-2.209-1.322-3.516-1.322c-1.066,0-1.838,0.302-1.982,0.362l-0.663,0.4c-3.781,2.428-8.066,5.18-8.313,15.993 c-0.01,10.902,8.582,21.55,15.729,28.498c7.494,8.22,18.895,18.018,30.642,18.018h0.052c10.781-0.247,13.533-4.533,15.96-8.314 l0.276-0.43l0.123-0.231C101.171,91.06,101.491,88.663,99.75,86.663z M97.973,90.908l-0.188,0.293 c-2.316,3.608-4.316,6.725-13.471,6.935l-0.017,1.5v-1.5c-11.214,0-22.622-10.676-28.487-17.104 c-6.795-6.608-14.892-16.556-14.883-26.377c0.21-9.186,3.326-11.187,6.935-13.504l0.284-0.184c0.138-0.04,0.408-0.104,0.74-0.104 c0.588,0,1.094,0.191,1.545,0.584c1.768,1.539,9.688,9.458,9.768,9.538l0.1,0.091c0.18,0.15,1.727,1.51,0.643,2.962 c-0.938,1.257-2.942,3.553-5.541,6.343l-0.727,0.781l1.896,3.57c3.275,5.391,6.795,9.597,10.762,12.856 c3.562,2.93,9.383,6.044,9.629,6.175l0.945,0.505l0.783-0.731c0.697-0.65,4.274-3.971,6.209-5.416 c0.354-0.265,0.695-0.394,1.042-0.394c0.842,0,1.675,0.754,1.917,1.036l0.092,0.1c0.08,0.08,8.001,8.002,9.539,9.769 C98.295,89.562,98.069,90.594,97.973,90.908z" fill="inherit"/></g></svg>