<?xml version="1.0" encoding="UTF-8" standalone="no"?><svg xmlns="http://www.w3.org/2000/svg" xmlns:xlink="http://www.w3.org/1999/xlink" fill="#ffffff" height="62.9" preserveAspectRatio="xMidYMid meet" version="1" viewBox="6.6 13.5 79.8 62.9" width="79.8" zoomAndPan="magnify"><g id="change1_1"><path d="M39.17,17.404c0.016,0,0.031,0,0.047,0H53.82c0.016,0,0.025,0,0.041,0c7.127-0.163,14.133,0.451,19.322,2.806 c5.182,2.354,8.652,6.169,9.461,13.387v3.057c0,0.337-0.041,0.384-0.25,0.583c-0.203,0.191-0.658,0.452-1.316,0.639 c-1.316,0.37-3.309,0.431-4.928,0.302c-0.053,0-0.1,0-0.15,0c-3.836,0-5.146-0.588-5.801-1.216 c-0.658-0.625-1.061-1.96-2.094-4.029l-2.023-4.027c-1.002-2.006-2.414-3.419-4.006-4.231c-1.594-0.81-3.281-1.028-4.881-1.028 H35.836c-1.594,0-3.285,0.218-4.879,1.028c-1.588,0.812-3,2.225-4.002,4.231l-2.023,4.027C23.893,35,23.49,36.336,22.838,36.96 c-0.658,0.627-1.965,1.216-5.801,1.216c-0.051,0-0.104,0-0.156,0c-1.619,0.129-3.609,0.068-4.922-0.302 c-0.658-0.187-1.113-0.447-1.322-0.639c-0.203-0.199-0.25-0.245-0.25-0.583v-3.057c0.814-7.217,4.285-11.033,9.463-13.387 C25.043,17.855,32.043,17.242,39.17,17.404z M39.217,13.635c-7.371-0.167-14.848,0.375-20.941,3.146 c-6.107,2.775-10.73,8.07-11.666,16.422c-0.006,0.072-0.01,0.14-0.016,0.208v3.243c0,1.294,0.59,2.526,1.432,3.32 c0.842,0.796,1.859,1.232,2.895,1.523c2.043,0.576,4.273,0.582,6.17,0.437c4.186-0.01,6.73-0.681,8.375-2.244 c1.652-1.581,2.018-3.389,2.859-5.068l2.021-4.038c0.711-1.42,1.473-2.116,2.34-2.557c0.863-0.442,1.912-0.613,3.15-0.613h21.359 c1.244,0,2.289,0.171,3.156,0.613c0.861,0.441,1.629,1.137,2.34,2.557l2.021,4.038c0.842,1.679,1.203,3.487,2.859,5.068 c1.641,1.563,4.184,2.234,8.375,2.244c1.891,0.145,4.127,0.14,6.164-0.437c1.041-0.291,2.055-0.728,2.895-1.523 c0.848-0.793,1.432-2.026,1.432-3.32v-3.243c0-0.068-0.004-0.136-0.016-0.208c-0.93-8.353-5.553-13.647-11.66-16.422 c-6.098-2.77-13.574-3.312-20.941-3.146H39.217z" fill="inherit"/><path d="M13.129,68.604c-0.016,0.083-0.02,0.167-0.025,0.249L13.129,68.604z M36.029,35.604h3.924 c1.443,2.312,3.762,3.986,6.563,3.986c2.807-0.006,5.115-1.674,6.557-3.986h3.939c0.674,4.375,2.514,8.128,6.799,11.169 c2.012,1.428,4.006,2.723,5.615,4.027c1.637,1.325,2.795,2.552,3.203,4.054c0.006,0.03,0.012,0.063,0.016,0.093l3.516,14.208 c0,0.025,0.006,0.052,0.006,0.074c0.162,0.883-0.246,1.792-0.857,2.364c-0.684,0.639-1.551,1.003-2.523,1.003H20.252 c-0.973,0-1.84-0.359-2.523-1.003c-0.611-0.566-1.025-1.48-0.863-2.364l3.527-14.282c0.006-0.03,0.01-0.063,0.016-0.093 c0.402-1.502,1.563-2.729,3.197-4.054c1.609-1.304,3.615-2.593,5.627-4.027c4.285-3.041,6.123-6.793,6.803-11.169H36.029z M79.902,68.553l0.025,0.3C79.928,68.755,79.918,68.651,79.902,68.553z M36.029,31.835c-1.854,0-3.463,1.372-3.746,3.197 c-0.584,3.788-1.672,6.122-5.256,8.668c-1.918,1.362-3.977,2.682-5.82,4.179c-1.822,1.475-3.73,3.288-4.457,5.992 c-0.004,0.005-0.004,0.009-0.01,0.015c-0.006,0.038-0.021,0.109-0.037,0.161l-3.547,14.375c-0.01,0.041-0.016,0.089-0.021,0.13 c-0.428,2.333,0.559,4.449,1.99,5.788c1.359,1.273,3.182,2.028,5.127,2.028h52.529c1.943,0,3.766-0.755,5.125-2.028 c1.432-1.339,2.42-3.449,1.99-5.788c-0.006-0.042-0.01-0.09-0.021-0.13l-3.547-14.375c-0.01-0.052-0.025-0.124-0.037-0.161 c-0.004-0.005-0.004-0.009-0.01-0.015c-0.727-2.704-2.633-4.517-4.457-5.992c-1.844-1.497-3.893-2.813-5.814-4.179 c-3.584-2.546-4.666-4.88-5.256-8.668c-0.283-1.825-1.893-3.197-3.746-3.197h-4.76c-0.795,0-1.506,0.494-1.781,1.237 c-0.611,1.653-2.18,2.744-3.951,2.75c-1.775-0.006-3.35-1.091-3.965-2.75c-0.271-0.743-0.982-1.237-1.777-1.237H36.029z" fill="inherit"/><path d="M46.516,47.375c4.52,0,8.141,3.607,8.141,8.098s-3.621,8.097-8.141,8.097c-4.514,0-8.135-3.606-8.135-8.097 S42.002,47.375,46.516,47.375z M46.516,43.607c-6.563,0-11.928,5.332-11.928,11.865c0,6.526,5.365,11.865,11.928,11.865 c6.568,0,11.934-5.338,11.934-11.865C58.449,48.939,53.084,43.607,46.516,43.607z" fill="inherit"/></g></svg>