<?xml version="1.0" encoding="UTF-8" standalone="no"?><svg xmlns="http://www.w3.org/2000/svg" xmlns:xlink="http://www.w3.org/1999/xlink" fill="#000000" height="439" preserveAspectRatio="xMidYMid meet" version="1" viewBox="140.5 78.2 314.2 439.0" width="314.2" zoomAndPan="magnify"><g fill="#ffffff" id="change1_1"><path d="M 297.640625 98.15625 C 373.246094 98.15625 434.761719 159.667969 434.761719 235.273438 C 434.761719 262.835938 415.152344 310.914062 378.058594 374.3125 C 346.972656 427.445312 311.558594 477.691406 297.640625 497.011719 C 283.714844 477.683594 248.300781 427.433594 217.21875 374.3125 C 180.128906 310.914062 160.519531 262.835938 160.519531 235.273438 C 160.519531 159.667969 222.03125 98.15625 297.640625 98.15625 Z M 281.539062 508.878906 C 285.316406 514.121094 291.183594 517.125 297.640625 517.125 C 304.09375 517.125 309.964844 514.121094 313.738281 508.878906 C 331.453125 484.300781 365.742188 435.207031 396.363281 382.585938 C 435.113281 316 454.761719 266.4375 454.761719 235.273438 C 454.761719 148.640625 384.277344 78.15625 297.640625 78.15625 C 211.003906 78.15625 140.519531 148.640625 140.519531 235.273438 C 140.519531 266.4375 160.167969 316 198.914062 382.585938 C 229.535156 435.203125 263.824219 484.300781 281.539062 508.878906" fill="inherit"/><path d="M 297.640625 152.898438 C 343.0625 152.898438 380.015625 189.851562 380.015625 235.273438 C 380.015625 280.695312 343.0625 317.652344 297.640625 317.652344 C 252.21875 317.652344 215.265625 280.695312 215.265625 235.273438 C 215.265625 189.851562 252.21875 152.898438 297.640625 152.898438 Z M 297.640625 337.652344 C 354.089844 337.652344 400.015625 291.726562 400.015625 235.273438 C 400.015625 178.824219 354.089844 132.898438 297.640625 132.898438 C 241.191406 132.898438 195.265625 178.824219 195.265625 235.273438 C 195.265625 291.726562 241.191406 337.652344 297.640625 337.652344" fill="inherit"/></g></svg>