<?xml version="1.0" encoding="UTF-8" standalone="no"?><svg xmlns="http://www.w3.org/2000/svg" xmlns:xlink="http://www.w3.org/1999/xlink" fill="#ffffff" height="1152" preserveAspectRatio="xMidYMid meet" version="1" viewBox="653.6 437.7 1192.8 1152.0" width="1192.8" zoomAndPan="magnify"><g id="change1_1"><path d="M 1826.003906 1587.300781 L 674 1587.300781 C 664.0625 1587.300781 656 1579.238281 656 1569.300781 L 656 868.96875 C 656 859.023438 664.0625 850.96875 674 850.96875 C 683.941406 850.96875 692 859.023438 692 868.96875 L 692 1551.300781 L 1808.003906 1551.300781 L 1808.003906 868.96875 C 1808.003906 859.023438 1816.058594 850.96875 1826.003906 850.96875 C 1835.949219 850.96875 1844.003906 859.023438 1844.003906 868.96875 L 1844.003906 1569.300781 C 1844.003906 1579.238281 1835.949219 1587.300781 1826.003906 1587.300781" fill="inherit"/><path d="M 1825.96875 1587.300781 C 1822.289062 1587.300781 1818.5625 1586.183594 1815.355469 1583.839844 L 1249.988281 1169.675781 L 684.636719 1583.839844 C 676.550781 1589.722656 665.347656 1587.914062 659.464844 1579.953125 C 653.605469 1571.933594 655.339844 1560.660156 663.355469 1554.773438 L 1239.351562 1132.832031 C 1245.683594 1128.195312 1254.304688 1128.195312 1260.636719 1132.832031 L 1836.628906 1554.773438 C 1844.648438 1560.660156 1846.382812 1571.933594 1840.527344 1579.953125 C 1836.980469 1584.753906 1831.519531 1587.300781 1825.96875 1587.300781" fill="inherit"/><path d="M 1825.96875 886.972656 C 1822.289062 886.972656 1818.5625 885.851562 1815.355469 883.503906 L 1569.121094 703.125 C 1561.097656 697.246094 1559.378906 685.976562 1565.222656 677.957031 C 1571.113281 669.96875 1582.316406 668.15625 1590.402344 674.070312 L 1836.628906 854.4375 C 1844.648438 860.328125 1846.382812 871.601562 1840.527344 879.609375 C 1836.980469 884.421875 1831.519531 886.972656 1825.96875 886.972656" fill="inherit"/><path d="M 674.023438 886.96875 C 668.46875 886.96875 663.007812 884.410156 659.46875 879.609375 C 653.609375 871.589844 655.34375 860.320312 663.359375 854.441406 L 902.375 679.359375 C 910.414062 673.449219 921.664062 675.261719 927.546875 683.25 C 933.40625 691.269531 931.671875 702.539062 923.65625 708.421875 L 684.640625 883.5 C 681.429688 885.839844 677.703125 886.96875 674.023438 886.96875" fill="inherit"/><path d="M 1347.984375 1237.125 C 1342.433594 1237.125 1336.972656 1234.574219 1333.4375 1229.773438 C 1327.570312 1221.753906 1329.304688 1210.484375 1337.324219 1204.59375 L 1815.355469 854.4375 C 1823.410156 848.558594 1834.648438 850.316406 1840.527344 858.335938 C 1846.382812 866.34375 1844.648438 877.625 1836.628906 883.503906 L 1358.609375 1233.664062 C 1355.390625 1236.003906 1351.664062 1237.125 1347.984375 1237.125" fill="inherit"/><path d="M 1152.011719 1237.121094 C 1148.328125 1237.121094 1144.601562 1236 1141.390625 1233.660156 L 663.359375 883.5 C 655.34375 877.621094 653.609375 866.339844 659.46875 858.328125 C 665.351562 850.308594 676.554688 848.558594 684.640625 854.441406 L 1162.671875 1204.589844 C 1170.691406 1210.480469 1172.421875 1221.75 1166.558594 1229.769531 C 1163.019531 1234.570312 1157.558594 1237.121094 1152.011719 1237.121094" fill="inherit"/><path d="M 1573.199219 1072.148438 C 1563.269531 1072.148438 1555.199219 1064.089844 1555.199219 1054.148438 L 1555.199219 473.691406 L 931.015625 473.691406 L 931.015625 1042.308594 C 931.015625 1052.25 922.953125 1060.308594 913.015625 1060.308594 C 903.078125 1060.308594 895.015625 1052.25 895.015625 1042.308594 L 895.015625 455.691406 C 895.015625 445.761719 903.078125 437.691406 913.015625 437.691406 L 1573.199219 437.691406 C 1583.140625 437.691406 1591.199219 445.761719 1591.199219 455.691406 L 1591.199219 1054.148438 C 1591.199219 1064.089844 1583.140625 1072.148438 1573.199219 1072.148438" fill="inherit"/><path d="M 1252.199219 741.589844 C 1220.820312 741.589844 1195.269531 767.128906 1195.269531 798.519531 C 1195.269531 829.898438 1220.820312 855.421875 1252.199219 855.421875 C 1283.589844 855.421875 1309.109375 829.898438 1309.109375 798.519531 C 1309.109375 767.128906 1283.589844 741.589844 1252.199219 741.589844 Z M 1252.199219 891.421875 C 1200.96875 891.421875 1159.269531 849.75 1159.269531 798.519531 C 1159.269531 747.28125 1200.96875 705.589844 1252.199219 705.589844 C 1303.441406 705.589844 1345.109375 747.28125 1345.109375 798.519531 C 1345.109375 849.75 1303.441406 891.421875 1252.199219 891.421875" fill="inherit"/><path d="M 1243.109375 1020.75 C 1122.988281 1020.75 1025.28125 923.039062 1025.28125 802.921875 C 1025.28125 682.808594 1122.988281 585.089844 1243.109375 585.089844 C 1363.230469 585.089844 1460.941406 682.808594 1460.941406 802.921875 L 1460.941406 820.828125 C 1460.941406 862.191406 1427.28125 895.851562 1385.910156 895.851562 C 1344.550781 895.851562 1310.890625 862.191406 1310.890625 820.828125 L 1310.890625 728.019531 C 1310.890625 718.078125 1318.949219 710.019531 1328.890625 710.019531 C 1338.828125 710.019531 1346.890625 718.078125 1346.890625 728.019531 L 1346.890625 820.828125 C 1346.890625 842.339844 1364.398438 859.851562 1385.910156 859.851562 C 1407.429688 859.851562 1424.941406 842.339844 1424.941406 820.828125 L 1424.941406 802.921875 C 1424.941406 702.660156 1343.378906 621.089844 1243.109375 621.089844 C 1142.839844 621.089844 1061.28125 702.660156 1061.28125 802.921875 C 1061.28125 903.191406 1142.839844 984.75 1243.109375 984.75 C 1278.949219 984.75 1313.589844 974.339844 1343.300781 954.679688 C 1351.578125 949.121094 1362.78125 951.46875 1368.238281 959.738281 C 1373.75 968.039062 1371.480469 979.191406 1363.179688 984.679688 C 1327.550781 1008.28125 1286.019531 1020.75 1243.109375 1020.75" fill="inherit"/></g></svg>